<?xml version="1.0" standalone="no"?><!DOCTYPE svg PUBLIC "-//W3C//DTD SVG 1.1//EN" "http://www.w3.org/Graphics/SVG/1.1/DTD/svg11.dtd"><svg t="1694678646110" class="icon" viewBox="0 0 1024 1024" version="1.1" xmlns="http://www.w3.org/2000/svg" p-id="15604" xmlns:xlink="http://www.w3.org/1999/xlink" width="200" height="200"><path d="M-109.37837037-154.88948147h1242.75674074v1242.75674073H-109.37837037z" fill="#FFFFFF" p-id="15605"></path><path d="M445.66046189 35.01558383c84.21156333 39.94575273 114.15608313 153.00702663 114.15608312 153.00702663s-106.52200687 48.31956537-190.70398069 8.37381385S254.95648119 43.35980818 254.95648119 43.35980818s106.52200687-48.31956537 190.7039807-8.37381385z" fill="#30BE57" p-id="15606"></path><path d="M248.86105429 29.89661056l6.0954269 13.49278713-14.29170251 3.78744922a14.79472287 14.79472287 0 0 1 8.19627561-17.28023635z m310.98508023 158.1259999c6.09542569 13.46319762 6.06583618 13.46319762 6.06583618 13.49278712h-0.02958951l-0.08876851 0.05917901-0.29589382 0.11835801-1.06521971 0.44384135c-0.8876839 0.38466234-2.16003015 0.94686171-3.81703874 1.59783079a347.76476089 347.76476089 0 0 1-61.84194322 17.96079374c-38.46627996 7.36777194-89.80396866 9.97164342-136.02268409-11.95413657-46.18912594-21.89619049-76.63666608-63.35100428-95.27801598-97.79311896a348.14942444 348.14942444 0 0 1-25.18061937-59.23807171 186.85735246 186.85735246 0 0 1-1.18357773-3.99457576l-0.32548454-1.09480922-0.0887673-0.29589383V47.20643642l-0.0295895-0.02958951 14.29170251-3.78744922-6.0954269-13.49278713h0.02958951l0.08876851-0.05917901 0.29589504-0.11835801 1.06521972-0.47343086 3.84662824-1.59783079a347.8535294 347.8535294 0 0 1 61.84194199-17.99038323c38.43669045-7.30859293 89.77438037-9.94205392 135.99309582 11.98372606 46.18912594 21.92577999 76.63666608 63.38059378 95.27801598 97.82270847a347.67599237 347.67599237 0 0 1 25.18061935 59.23807171c0.53260986 1.68659809 0.94686171 3.04771284 1.18357774 3.96498626l0.32548332 1.09480922 0.08876852 0.29589504v0.1183568l0.0295895 0.0295895-14.29170252 3.84662825z m0 0l6.06583618 13.49278712c6.59844605-2.98853383 10.06041194-10.32671627 8.19627683-17.30982586l-14.29170252 3.84662825z m-18.28627827-8.66970769a318.47120896 318.47120896 0 0 0-20.2391807-45.80446238c-17.39859437-32.07495922-43.99950628-67.16804301-81.96276588-85.15842624-37.9928491-18.04956225-81.99235538-16.48132096-117.85476384-9.6461601a318.35285216 318.35285216 0 0 0-48.28997707 13.31525132l1.62742029 4.4975961c3.93539675 10.74096932 10.06041194 25.44692368 18.64135111 41.30686627 17.36900486 32.07495922 43.99950628 67.1384535 81.96276588 85.15842625 37.9928491 18.01997275 81.96276588 16.45173267 117.82517433 9.6165706a318.55997747 318.55997747 0 0 0 48.28997588-13.28566182z" fill="#0E5C24" p-id="15607"></path><path d="M512 340.2307217c-71.84317493-57.10763107-224.90938058-110.87165546-333.02921701-61.39810065-173.51251285 79.4180734-96.28405791 368.09271129-77.05091793 423.0403122 19.26272948 54.91801262 93.7097759 262.75428215 211.86043479 290.86425634 58.02490448 13.75909266 159.7830097 6.80557258 198.21970015-36.60214484 38.46627996 43.3781279 140.19479567 50.3612375 198.19011065 36.57255534 118.18024838-28.05079518 192.62729482-235.91665422 211.86043479-290.86425635 19.29231899-54.88842311 96.49118444-343.59264931-77.02132843-423.01072269-108.11983645-49.4735536-261.18604208 4.32005908-333.02921701 61.39810065z" fill="#DC2F2F" p-id="15608"></path><path d="M661.51547122 255.16106397c62.52249938-14.79472287 131.49549849-16.39255366 189.66835049 10.20835945 95.04130116 43.49648592 119.48218414 143.71594058 119.45259463 234.17087712 0 91.16508342-24.64800829 178.80902315-34.61965172 207.21489116-9.64615888 27.57736433-33.43607398 94.39033329-69.94945152 157.9780536-18.25668878 31.8086549-39.97534223 63.29182527-65.06719187 88.76833844-25.03267184 25.47651318-54.17827623 45.71569388-87.37763419 53.61607688-31.06891852 7.39736144-72.87880636 9.08395952-111.99605419 3.40278568-32.84428512-4.79348994-66.33953811-15.12020741-89.62643285-34.02786284-23.28689474 18.90765665-56.81173724 29.26396242-89.65602236 34.02786284-39.08765833 5.68117385-80.92713567 3.96498625-111.96646468-3.40278568-33.16976966-7.90038179-62.34496356-28.10997419-87.37763419-53.58648737-25.09185085-25.50610269-46.81050431-56.98927306-65.06719187-88.79792795-36.51337633-63.61730981-60.30329142-130.40068927-69.94945152-157.9780536-9.97164342-28.40586801-34.61965172-116.04980773-34.61965172-207.21489116 0-90.45493654 24.41129347-190.64480169 119.45259463-234.17087712 58.17285078-26.63050141 127.14584989-25.00308234 189.66835049-10.20835945 57.75859894 13.69991365 111.78892766 39.05806882 149.51547122 66.48748562 37.72654356-27.42941681 91.75687229-52.78757198 149.51547122-66.48748562z m6.80557258 28.79053156c-58.88299766 13.96621919-113.09086341 40.83343542-147.11872626 67.87818989l-9.20231754 7.30859292-9.20231754-7.30859292c-34.02786285-27.04475326-88.23572859-53.9119707-147.11872626-67.84860039-59.00135568-13.99580748-120.60658286-14.55800805-170.55356852 8.28504413C106.65417599 328.24699564 82.95302941 412.10348735 82.95302941 499.56989005c0 86.75625582 23.67155709 170.93823086 32.93305363 197.42078476 9.61657059 27.3702378 32.6667481 91.96399882 67.70065408 153.03661612 17.54654189 30.53630866 37.78572257 59.71150256 60.51041674 82.79127079 22.75428367 23.10935772 47.19516665 39.38355337 73.11552118 45.53815684 26.98557546 6.42091023 65.00801285 8.10750832 100.90001203 2.89976654 36.48378683-5.3260998 67.16804301-17.22105734 82.82086028-34.91554676l11.06645265-12.48674641 11.06645265 12.48674641c15.68240677 17.69448941 46.33707225 29.58944575 82.85044978 34.91554676 35.86240846 5.207743 73.88484707 3.52114369 100.87042253-2.89976654 25.92035453-6.15460469 50.3612375-22.42880034 73.11552118-45.56774635 22.72469417-23.07976821 42.96387606-52.22537262 60.51041674-82.76168128 35.03390478-61.07261732 58.11367178-125.66637834 67.70065408-153.03661612 9.29108605-26.48255389 32.90346413-110.66452893 32.93305363-197.42078476 0-87.4664027-23.70114659-171.32289319-102.17235827-207.24448188-49.94698566-22.87264169-111.55221163-22.31044233-170.55356852-8.31463363z" fill="#4E0000" p-id="15609"></path><path d="M227.05363354 422.34143509a14.79472287 14.79472287 0 0 1 11.92454584 17.16187835c-6.15460469 34.23498938-11.12563166 91.63851549-5.85870966 151.40919706 5.3260998 60.06657539 20.80138126 120.36986683 53.79361268 162.32770218a14.79472287 14.79472287 0 0 1-23.25730402 18.28627706c-38.19997563-48.61546041-54.50375956-115.6947349-60.0073976-178.01010776-5.53322633-62.6408574-0.35507283-122.70743401 6.2137837-159.22081032a14.79472287 14.79472287 0 0 1 17.16187955-11.95413657z" fill="#FFB0B0" p-id="15610"></path><path d="M812.62877324 45.78614265a14.79472287 14.79472287 0 0 1-16.68844749 12.60510443c-77.46516977-10.88891563-138.00517723 31.57193887-183.45456677 93.35470307-45.47897905 61.81235371-73.58895324 140.34274319-85.39514107 193.72210405a14.79472287 14.79472287 0 1 1-28.87930008-6.39132073c12.39797791-56.10159036 41.83947734-138.77450311 90.42534825-204.8773252 48.61546041-66.07323378 118.65367924-118.15065888 211.41659223-105.10171311a14.79472287 14.79472287 0 0 1 12.57551493 16.68844749z" fill="#4E0000" p-id="15611"></path></svg>